<svg width="28" height="28" viewBox="0 0 28 28" fill="none" xmlns="http://www.w3.org/2000/svg">
<path d="M14 0.875C11.4041 0.875 8.86654 1.64477 6.70815 3.08696C4.54975 4.52916 2.86749 6.579 1.87409 8.97728C0.880687 11.3756 0.620768 14.0146 1.1272 16.5606C1.63363 19.1066 2.88367 21.4452 4.71923 23.2808C6.55479 25.1163 8.89345 26.3664 11.4394 26.8728C13.9854 27.3792 16.6244 27.1193 19.0227 26.1259C21.421 25.1325 23.4709 23.4503 24.913 21.2919C26.3552 19.1335 27.125 16.5959 27.125 14C27.125 10.519 25.7422 7.18064 23.2808 4.71922C20.8194 2.25781 17.481 0.875 14 0.875ZM14 5.5625C14.8344 5.5625 15.65 5.80993 16.3438 6.27349C17.0376 6.73705 17.5783 7.39593 17.8976 8.1668C18.2169 8.93768 18.3005 9.78593 18.1377 10.6043C17.9749 11.4226 17.5731 12.1744 16.9831 12.7644C16.3931 13.3544 15.6414 13.7562 14.823 13.9189C14.0047 14.0817 13.1564 13.9982 12.3856 13.6789C11.6147 13.3596 10.9558 12.8188 10.4922 12.1251C10.0287 11.4313 9.78126 10.6156 9.78126 9.78125C9.78002 9.22689 9.8883 8.67774 10.0999 8.16534C10.3114 7.65294 10.6222 7.18738 11.0141 6.79539C11.4061 6.40339 11.8717 6.09269 12.3841 5.88112C12.8965 5.66954 13.4456 5.56126 14 5.5625ZM21.5 22.3625C19.4441 24.2209 16.7714 25.2499 14 25.2499C11.2286 25.2499 8.55593 24.2209 6.50001 22.3625V21.8188C6.4645 20.5351 6.93689 19.2893 7.81457 18.352C8.69225 17.4146 9.90432 16.8614 11.1875 16.8125H16.8125C18.0899 16.8638 19.2962 17.4138 20.1726 18.3445C21.049 19.2753 21.5256 20.5125 21.5 21.7906V22.3625Z" fill="#FCF7F7"/>
</svg>
