<svg width="69" height="75" viewBox="0 0 69 75" fill="none" xmlns="http://www.w3.org/2000/svg">
<path d="M0.474364 3.54282C0.295268 4.17198 0.172852 4.85058 0.172852 5.62571V69.3849C0.172852 70.1483 0.295268 70.8197 0.467376 71.4419L36.2521 37.5397C36.2521 37.5395 0.474364 3.54282 0.474364 3.54282Z" fill="#450862" fill-opacity="0.8"/>
<path d="M50.2161 24.3076L8.43505 1.06654C6.76936 0.0535602 5.12955 -0.203178 3.74414 0.150096L39.6798 34.295L50.2161 24.3076Z" fill="#681B8C" fill-opacity="0.8"/>
<path d="M65.621 32.8767L54.4694 26.6731L43.0469 37.4923L54.6814 48.552L65.5314 42.5935C70.828 39.5752 68.896 34.7169 65.621 32.8767Z" fill="#BB2EDE" fill-opacity="0.8"/>
<path d="M3.63867 74.8204C5.0453 75.2138 6.72523 74.9782 8.43337 73.9391L50.3418 50.9292L39.6144 40.7365C39.6144 40.7368 3.63867 74.8204 3.63867 74.8204Z" fill="#7C21C5" fill-opacity="0.8"/>
</svg>
